<svg height="512pt" viewBox="0 -48 512 512" width="512pt" xmlns="http://www.w3.org/2000/svg"><path d="m157.9375 385.480469c0 16.566406-13.433594 30-30 30-16.570312 0-30-13.433594-30-30 0-16.570313 13.429688-30 30-30 16.566406 0 30 13.429687 30 30zm0 0"/><path d="m414.0625 385.480469c0 16.566406-13.429688 30-30 30-16.566406 0-30-13.433594-30-30 0-16.570313 13.433594-30 30-30 16.570312 0 30 13.429687 30 30zm0 0"/><path d="m497 156.539062h-29.289062l1.207031-32.148437h-69.855469v202.996094c17.582031 4.542969 32.058594 16.882812 39.523438 33.09375h7.011718c8.066406 0 14.6875-6.375 14.992188-14.4375l5.992187-159.503907h30.417969c8.285156 0 15-6.714843 15-15 0-8.28125-6.714844-15-15-15zm0 0"/><path d="m40.304688 94.390625h431.390624c4.820313 0 9.351563-2.316406 12.167969-6.230469 2.820313-3.910156 3.585938-8.9375 2.0625-13.511718l-21.460937-64.390626c-2.042969-6.125-7.773438-10.257812-14.230469-10.257812h-388.464844c-6.457031 0-12.191406 4.132812-14.230469 10.257812l-21.464843 64.390626c-1.523438 4.574218-.757813 9.601562 2.0625 13.511718 2.816406 3.914063 7.347656 6.230469 12.167969 6.230469zm0 0"/><path d="m112.9375 124.390625h-69.855469l1.207031 32.148437h-29.289062c-8.285156 0-15 6.71875-15 15 0 8.285157 6.714844 15 15 15h30.417969l5.992187 159.503907c.304688 8.0625 6.925782 14.4375 14.992188 14.4375h7.011718c7.464844-16.210938 21.941407-28.546875 39.523438-33.09375zm0 0"/><path d="m369.0625 124.390625h-226.125v202.992187c17.582031 4.546876 32.058594 16.886719 39.519531 33.097657h147.082031c7.464844-16.210938 21.941407-28.550781 39.523438-33.097657zm0 0"/></svg>